<svg id="Layer_1" data-name="Layer 1" xmlns="http://www.w3.org/2000/svg" xmlns:xlink="http://www.w3.org/1999/xlink" viewBox="0 0 242.56 202.22"><defs><style>.cls-1{fill:none;}.cls-2{clip-path:url(#clip-path);}.cls-3{fill:#e8441b;}.cls-4{fill:#e8461b;}.cls-5{fill:#e84c1b;}.cls-6{fill:#e84a1b;}.cls-7{fill:#f6ac86;}.cls-8{fill:#fdd494;}.cls-9{fill:#fee6c9;}.cls-10{fill:#ef7d4c;}.cls-11{fill:#ffe8c8;}.cls-12{fill:#ffebcd;}.cls-13{fill:#f8aa07;}.cls-14{fill:#f4970c;}.cls-15{fill:#f7a606;}.cls-16{fill:#f49908;}.cls-17{fill:#f6a007;}.cls-18{fill:#f59e05;}.cls-19{fill:#f59a07;}.cls-20{fill:#f7a40b;}.cls-21{fill:#f59c06;}.cls-22{fill:#e95519;}.cls-23{fill:#ef7a11;}.cls-24{fill:#eb6512;}.cls-25{fill:#e9501a;}.cls-26{fill:#ed6913;}.cls-27{fill:#f08009;}.cls-28{fill:#ea5918;}.cls-29{fill:#ee750f;}.cls-30{fill:#f08308;}.cls-31{fill:#ea6114;}.cls-32{fill:#f08a03;}.cls-33{fill:#f39104;}.cls-34{fill:#f18507;}.cls-35{fill:#f18c04;}.cls-36{fill:#f39206;}.cls-37{fill:#e95c16;}.cls-38{fill:#ee7311;}.cls-39{fill:#ed6b14;}.cls-40{fill:#ea5e15;}.cls-41{fill:#ee7113;}.cls-42{fill:#ed6e14;}.cls-43{fill:#000102;}.cls-44{fill:#2a2c2c;}</style><clipPath id="clip-path" transform="translate(-2.55 -5.26)"><rect class="cls-1" x="2.55" y="5.26" width="242.56" height="202.22"/></clipPath></defs><g class="cls-2"><path class="cls-3" d="M159.19,122v-.51a18.64,18.64,0,0,0,0-4.09v-.51a39.14,39.14,0,0,1,.62-5.29,8.26,8.26,0,0,1,.58-2c.61-.47.88.09,1.14.44,1.13,1.49,2.22,3,3.32,4.53q5.7,7.83,11.39,15.69,9.16,12.57,18.29,25.18c.2.27.47.53.32.92-.15.16-.41,0-.56.17H193.1a41.33,41.33,0,0,1-5.19-.75,37.55,37.55,0,0,1-25.08-20,35.76,35.76,0,0,1-3.41-11.1c-.12-.92-.06-1.86-.23-2.77" transform="translate(-2.55 -5.26)"/><path class="cls-4" d="M160.6,109.54a13.53,13.53,0,0,1,.82-2.55c.55-.25.69.27.9.54,1.93,2.6,3.81,5.22,5.72,7.84q9.28,12.76,18.56,25.54c3.46,4.75,6.89,9.51,10.35,14.26a1.67,1.67,0,0,1,.5,1.14c0,.13-.17.17-.27.25h-1.53c-.25-.22-.61.05-.85-.18a32.77,32.77,0,0,0-2.78-4c-2.88-4-5.81-8-8.71-12s-6-8.27-9-12.4q-4-5.52-8-11c-1.66-2.28-3.31-4.57-5-6.85a1,1,0,0,0-.72-.55" transform="translate(-2.55 -5.26)"/><path class="cls-5" d="M201.44,156.18c-.66.21-1.4,0-2,.38h-.17c-3.5-5.06-7.21-10-10.82-15q-8.28-11.45-16.61-22.87c-3.2-4.38-6.3-8.82-9.6-13.13a.87.87,0,0,1-.14-.31,10.9,10.9,0,0,1,.92-2c.58-.19.72.33.94.63l5.15,7.09c3.46,4.78,6.94,9.53,10.4,14.31,6.28,8.69,12.61,17.33,18.88,26,1,1.33,2,2.65,2.9,4,.18.26.49.52.19.89" transform="translate(-2.55 -5.26)"/><path class="cls-6" d="M162.06,105.27a10.83,10.83,0,0,1,2.27,2.82q5.11,7,10.17,14,4.35,6,8.66,11.92l8.52,11.72L199,155.76a1.2,1.2,0,0,1,.24.8h-.85c-.31-.23-.72.06-1-.18a12.61,12.61,0,0,0-2-3.1c-3.21-4.48-6.46-8.92-9.7-13.38l-8.93-12.26-8.06-11.11-6.73-9.24a.56.56,0,0,0-.48-.3,6.6,6.6,0,0,1,.64-1.72" transform="translate(-2.55 -5.26)"/><path class="cls-7" d="M159.19,117.38c.4,1,.09,2.05.16,3.07,0,.33.2.73-.16,1Z" transform="translate(-2.55 -5.26)"/><path class="cls-8" d="M233.64,117.89v2.9l-.13,0a.39.39,0,0,1-.18-.2,3.79,3.79,0,0,1-.09-1.11,3.62,3.62,0,0,1,.15-1.57.17.17,0,0,1,.25-.06" transform="translate(-2.55 -5.26)"/><path class="cls-9" d="M195.13,82.26a.76.76,0,0,0,0-.15h2.56a.38.38,0,0,0,0,.15c-.19.25-.46.23-.73.27-.62,0-1.28.19-1.84-.27" transform="translate(-2.55 -5.26)"/><path class="cls-10" d="M194.8,156.38c.28.07.62-.12.85.18h-1.36c.11-.21.33-.15.51-.18" transform="translate(-2.55 -5.26)"/><path class="cls-10" d="M197.35,156.38c.34.08.73-.14,1,.18h-1.2l.17-.18" transform="translate(-2.55 -5.26)"/><path class="cls-11" d="M233.51,120.78a.28.28,0,0,0,.13,0v.86h-.14a.55.55,0,0,1,0-.87" transform="translate(-2.55 -5.26)"/><path class="cls-12" d="M233.64,117.89h-.15a.55.55,0,0,1,0-.85h.14Z" transform="translate(-2.55 -5.26)"/><path class="cls-13" d="M210.31,85a32.31,32.31,0,0,1,8.76,5,36.8,36.8,0,0,1,14,23.37,18.36,18.36,0,0,1,.37,3.55c-.57.21-.73-.29-1-.6q-2.94-4-5.87-8c-3.8-5.22-7.59-10.47-11.39-15.7-1.56-2.13-3.12-4.25-4.65-6.41-.22-.32-.62-.65-.26-1.13" transform="translate(-2.55 -5.26)"/><path class="cls-14" d="M197,82.31l.68,0,.85.06c.39.15.49.55.69.84,3.82,5.33,7.71,10.61,11.56,15.91q8.23,11.37,16.51,22.73c1.6,2.2,3.13,4.45,4.83,6.59.1.12.25.24.16.44-.12.44-.25.88-.37,1.33-.58.22-.73-.31-.94-.61q-2.87-3.92-5.72-7.84-5.57-7.72-11.19-15.42c-5.46-7.49-10.88-15-16.35-22.5-.32-.44-.8-.83-.71-1.48" transform="translate(-2.55 -5.26)"/><path class="cls-15" d="M210.31,85c.09,1,.84,1.58,1.35,2.3,3.21,4.46,6.46,8.91,9.69,13.35q4.52,6.2,9,12.38c.82,1.12,1.62,2.24,2.43,3.36.17.24.32.47.64.5l.06.16c0,.28,0,.57,0,.85,0,.57,0,1.14,0,1.71-.58.22-.74-.28-1-.59-1.79-2.42-3.54-4.86-5.3-7.3L216.62,97.18q-4.41-6.06-8.79-12.13c-.22-.3-.58-.61-.26-1.06a12,12,0,0,1,2.74,1" transform="translate(-2.55 -5.26)"/><path class="cls-16" d="M232.3,128.83a33.73,33.73,0,0,1-3.21-4.24q-8.19-11.18-16.31-22.38-6.93-9.55-13.85-19.13a4.35,4.35,0,0,1-.37-.75,4.88,4.88,0,0,1,1.52.14c1.36,1.74,2.63,3.56,3.93,5.35q5.7,7.84,11.41,15.7c5.46,7.54,11,15,16.4,22.61.29.42.86.69.81,1.32a3.45,3.45,0,0,1-.33,1.38" transform="translate(-2.55 -5.26)"/><path class="cls-17" d="M233.44,122a7.85,7.85,0,0,1-.17,1.87c-.57.21-.73-.28-1-.59-2-2.77-4-5.56-6.05-8.33q-9.09-12.5-18.15-25c-1.44-2-2.89-3.93-4.3-5.92-.22-.3-.59-.58-.32-1.05.66-.06,1.22.41,1.87.39,2.26,3.16,4.57,6.29,6.85,9.44l11.21,15.43c3.33,4.59,6.65,9.2,10,13.76" transform="translate(-2.55 -5.26)"/><path class="cls-18" d="M203.49,83c.09.7.63,1.13,1,1.64,3.73,5.17,7.5,10.32,11.25,15.47q4.35,6,8.68,12l8.25,11.37a.78.78,0,0,0,.6.42,6.39,6.39,0,0,1-.31,1.89A33.89,33.89,0,0,1,230.1,122l-10.5-14.44L202.51,84a3.05,3.05,0,0,1-.72-1.32,5.79,5.79,0,0,1,1.7.3" transform="translate(-2.55 -5.26)"/><path class="cls-19" d="M232.63,127.45c-4-5.21-7.73-10.57-11.59-15.86L208.42,94.28l-7.85-10.84a2,2,0,0,1-.49-1l1.2.16c1.18,1.37,2.18,2.89,3.24,4.35q6.27,8.65,12.56,17.28,7.88,10.83,15.75,21.68l.1.13c-.22.43,0,1-.3,1.38" transform="translate(-2.55 -5.26)"/><path class="cls-20" d="M233.44,122c-.32,0-.48-.26-.64-.49q-7-9.69-14-19.35c-4.18-5.76-8.39-11.5-12.57-17.26a2.93,2.93,0,0,1-.84-1.53,2.8,2.8,0,0,1,1,.3c1.53,2,3,4,4.43,6,3.8,5.24,7.62,10.47,11.4,15.71,2.38,3.28,4.78,6.55,7.14,9.86q2,2.81,4.09,5.55l.07,0c0,.29,0,.58,0,.87l-.06.33" transform="translate(-2.55 -5.26)"/><path class="cls-20" d="M233.44,120.8c-.86-.4-1.18-1.26-1.69-2q-5.81-7.92-11.56-15.87c-2.9-4-5.79-8-8.69-12-1.49-2.06-3-4.1-4.49-6.15a2.46,2.46,0,0,1-.63-1.19,2.82,2.82,0,0,1,1.2.35A5.41,5.41,0,0,0,209,86.28c2.91,4.06,5.87,8.09,8.81,12.13l9,12.38q3,4.11,6,8.24c.18.26.33.53.69.56,0,.4,0,.81,0,1.21" transform="translate(-2.55 -5.26)"/><path class="cls-21" d="M232.94,126.07c-.33,0-.48-.26-.65-.49q-7.2-9.9-14.39-19.79Q211.09,96.4,204.3,87c-.94-1.3-1.89-2.6-2.83-3.91a3.07,3.07,0,0,1-.2-.45l.52,0,2.78,3.82,9.17,12.61,8.06,11.11c2.91,4,5.84,8,8.72,12a26.81,26.81,0,0,1,2.44,3.54l0,.33" transform="translate(-2.55 -5.26)"/><path class="cls-22" d="M207.77,154.74a18.53,18.53,0,0,1-3.43.94c-2.81-3.82-5.58-7.66-8.37-11.49q-5.72-7.84-11.41-15.7l-17.85-24.58c-.78-1.08-1.56-2.17-2.37-3.23a17.68,17.68,0,0,1,1.88-2.89c.55-.23.68.29.88.56,2.1,2.83,4.16,5.68,6.23,8.53,3.76,5.16,7.49,10.33,11.25,15.49q8.35,11.49,16.7,23l6.11,8.4c.21.28.54.53.38,1" transform="translate(-2.55 -5.26)"/><path class="cls-23" d="M225.12,142.88a10.2,10.2,0,0,1-1.86,2.13c-3.45-4.68-6.84-9.41-10.26-14.11s-6.92-9.49-10.36-14.25c-5.83-8.07-11.73-16.1-17.55-24.18-1.39-1.93-2.81-3.85-4.19-5.78-.18-.25-.43-.47-.4-.83a9.76,9.76,0,0,1,2.37-1c.38-.21.5.12.66.33l7.91,10.88c3.79,5.2,7.57,10.43,11.36,15.63q8.26,11.37,16.5,22.74c1.85,2.55,3.73,5.08,5.55,7.65.17.23.48.44.27.81" transform="translate(-2.55 -5.26)"/><path class="cls-24" d="M216.08,150.89a8.46,8.46,0,0,1-2.2,1.22c-.38-.09-.54-.41-.74-.68-4.24-5.8-8.44-11.62-12.67-17.42l-9.8-13.51q-9-12.4-18-24.81a18.1,18.1,0,0,1-2-3,13.48,13.48,0,0,1,2-1.77,9.26,9.26,0,0,1,1.91,2.36q6.39,8.76,12.75,17.54,9,12.31,17.9,24.65,5.28,7.24,10.54,14.53c.19.26.47.5.36.9" transform="translate(-2.55 -5.26)"/><path class="cls-25" d="M164.34,100.68c.32,0,.47.27.64.5q7,9.67,14,19.35,6.54,9,13.09,17.92c3.19,4.39,6.35,8.79,9.53,13.19.71,1,1.45,1.94,2.17,2.93.23.33.58.63.55,1.11a18.93,18.93,0,0,1-2.9.51,7.53,7.53,0,0,0-1.52-2.4q-4.84-6.73-9.74-13.44-5.62-7.74-11.28-15.46c-3.06-4.2-6.09-8.42-9.15-12.62l-6.26-8.64c-.14-.19-.25-.38-.51-.39a14,14,0,0,1,1.36-2.56" transform="translate(-2.55 -5.26)"/><path class="cls-26" d="M216.08,150.89c-1.78-2.48-3.54-5-5.33-7.42q-4.25-5.86-8.51-11.71l-8.77-12L185,108c-2.9-4-5.82-8-8.72-12-1.22-1.69-2.42-3.4-3.63-5.1a11,11,0,0,1,1.89-1.51c3.45,4.69,6.84,9.41,10.26,14.12q5.67,7.77,11.31,15.56c6,8.25,12,16.48,18,24.73,1.16,1.62,2.33,3.22,3.51,4.82.2.29.53.53.42,1a9.79,9.79,0,0,1-1.9,1.29" transform="translate(-2.55 -5.26)"/><path class="cls-27" d="M225.12,142.88c-1.32-2.1-2.87-4-4.32-6q-4-5.54-8-11-4.62-6.36-9.27-12.73l-7.94-11c-3.09-4.25-6.19-8.48-9.28-12.73-1-1.41-2-2.84-3-4.27a.51.51,0,0,0-.4-.27,10,10,0,0,1,2.55-.89,16.42,16.42,0,0,1,2,2.62c4.39,6,8.79,12,13.16,18.09,5.38,7.45,10.81,14.86,16.19,22.3q4.44,6.14,8.91,12.25a3.62,3.62,0,0,1,1,1.65,7.54,7.54,0,0,1-1.53,2" transform="translate(-2.55 -5.26)"/><path class="cls-28" d="M207.77,154.74c-1.21-1.7-2.41-3.42-3.64-5.11q-4.35-6-8.72-12l-8.56-11.79c-2.84-3.9-5.67-7.82-8.51-11.72l-8.73-12-2.89-4c-.13-.19-.24-.38-.5-.39a10.26,10.26,0,0,1,1.46-1.89c.53-.1.66.36.88.65,2.41,3.22,4.74,6.51,7.11,9.77q5.24,7.19,10.46,14.38c6.28,8.68,12.62,17.33,18.89,26,1.46,2,2.95,4,4.4,6.06.26.35.64.67.54,1.19a10.18,10.18,0,0,1-2.19.77" transform="translate(-2.55 -5.26)"/><path class="cls-29" d="M180.5,85.86l7.83,10.75q7.44,10.2,14.87,20.41,6,8.19,11.88,16.4c2.63,3.61,5.24,7.22,7.88,10.82a1.16,1.16,0,0,1,.3.76,4.43,4.43,0,0,1-1.37,1.32,20.18,20.18,0,0,1-2.55-3.28c-3.84-5.24-7.63-10.52-11.45-15.77q-8.23-11.31-16.46-22.64C187.19,98.8,183,93,178.71,87.16a.71.71,0,0,1-.15-.3,7.44,7.44,0,0,1,1.94-1" transform="translate(-2.55 -5.26)"/><path class="cls-30" d="M226.65,140.86l-6-8.28L212,120.65q-4.27-5.9-8.56-11.78l-8.73-12-9.15-12.61a1,1,0,0,1-.09-.32,5,5,0,0,1,1.69-.48c.37-.19.5.1.67.32l13,17.85c3.4,4.68,6.82,9.36,10.21,14q7.92,10.94,15.87,21.84a10.94,10.94,0,0,1,1.09,1.51,7.14,7.14,0,0,1-1.26,1.82" transform="translate(-2.55 -5.26)"/><path class="cls-31" d="M170.61,92.68c1.33,1.53,2.43,3.24,3.63,4.88,2.94,4,5.86,8,8.78,12s5.77,8,8.66,11.93l8.51,11.71q4.25,5.83,8.46,11.66l5.23,7.2a6.12,6.12,0,0,1-1.53.72,8.5,8.5,0,0,1-1.85-2.28q-7.11-9.74-14.17-19.49l-17.87-24.6q-4.23-5.82-8.46-11.64a2.38,2.38,0,0,1-.56-.94l1.17-1.2" transform="translate(-2.55 -5.26)"/><path class="cls-32" d="M229.55,136.1a5.58,5.58,0,0,1-.84,1.58c-.45-.14-.62-.56-.87-.9q-5.81-7.92-11.57-15.89L205,105.32,189.46,84c-.2-.28-.53-.55-.28-1a2.65,2.65,0,0,1,1.18-.2c.64-.26,1,.11,1.34.57l7.2,9.91c3.81,5.23,7.59,10.47,11.4,15.7q8.94,12.27,17.85,24.58l1.21,1.64c.2.28.43.55.19.91" transform="translate(-2.55 -5.26)"/><path class="cls-33" d="M231.31,132a9.13,9.13,0,0,1-.89,2.22c-.49-.13-.71-.54-1-.91-4.08-5.58-8.13-11.2-12.2-16.79q-5.24-7.19-10.46-14.38-6.71-9.27-13.45-18.52c-.25-.34-.66-.67-.4-1.2a6.08,6.08,0,0,1,2-.15,12.15,12.15,0,0,1,2,2.6q5.73,7.89,11.46,15.76,8.22,11.34,16.46,22.66c2.12,2.91,4.18,5.87,6.39,8.71" transform="translate(-2.55 -5.26)"/><path class="cls-34" d="M189.18,83a4.52,4.52,0,0,0,1.1,1.78q7.64,10.53,15.31,21c4.1,5.64,8.17,11.31,12.26,17q5.42,7.47,10.86,14.93a4.78,4.78,0,0,1-.8,1.36,5.31,5.31,0,0,1-1.59-1.84c-3.37-4.6-6.7-9.23-10-13.85l-9.88-13.55c-2.89-4-5.76-8-8.65-11.93-3.27-4.51-6.53-9-9.82-13.49-.23-.32-.28-.85-.81-.91a7.34,7.34,0,0,1,2.07-.48" transform="translate(-2.55 -5.26)"/><path class="cls-35" d="M192.93,82.46A11.89,11.89,0,0,0,195,85.62c3,4.27,6.17,8.5,9.26,12.75,2.85,3.9,5.68,7.81,8.53,11.72l8.41,11.58,8.6,11.88c.18.25.4.48.59.71a6.19,6.19,0,0,1-.86,1.84.93.93,0,0,0-.26-.68q-6-8.3-12-16.59-6.57-9-13.15-18c-3.33-4.57-6.63-9.15-9.94-13.72-.92-1.26-1.85-2.51-2.73-3.78a1.07,1.07,0,0,0-1.06-.54,14.69,14.69,0,0,1,2.57-.33" transform="translate(-2.55 -5.26)"/><path class="cls-36" d="M231.31,132c-.86-.29-1.13-1.13-1.59-1.77q-5.82-7.92-11.58-15.88c-3.19-4.39-6.35-8.79-9.54-13.18s-6.6-9-9.87-13.57c-1.26-1.76-2.64-3.45-3.76-5.33l.16,0,1.89,0c1.31,2.12,2.87,4.06,4.32,6.08,2.65,3.69,5.33,7.36,8,11L218.51,112l8,11c1.63,2.24,3.27,4.48,4.89,6.72.14.19.26.36.52.37a9,9,0,0,1-.62,1.88" transform="translate(-2.55 -5.26)"/><path class="cls-37" d="M210,154c-1.48-2.31-3.18-4.46-4.78-6.69-2.65-3.69-5.34-7.36-8-11l-8.82-12.13-8.66-11.94-8.52-11.72c-1-1.34-2-2.69-2.94-4a1.29,1.29,0,0,0-.54-.52,3.31,3.31,0,0,1,1-1.22,16,16,0,0,1,2,2.62c4.38,6,8.79,12,13.16,18.09,5.83,8.07,11.71,16.1,17.54,24.17q4.47,6.16,9,12.32c.34.47.92.86.75,1.59L210,154" transform="translate(-2.55 -5.26)"/><path class="cls-38" d="M178.56,86.86a14.28,14.28,0,0,1,2.57,3.23c3.92,5.32,7.79,10.67,11.67,16,3.63,5,7.24,10,10.87,15s7.49,10.26,11.23,15.4l6.93,9.53a.84.84,0,0,1,.06.24c-.33.14-.33.59-.69.7-.51-.17-.7-.65-1-1q-6.43-8.9-12.91-17.76c-6.83-9.45-13.71-18.86-20.55-28.3-2.81-3.88-5.64-7.75-8.45-11.64-.23-.32-.64-.61-.4-1.11a1,1,0,0,1,.64-.33" transform="translate(-2.55 -5.26)"/><path class="cls-39" d="M218,149.6l-8.75-12.08q-4.28-5.9-8.57-11.78t-8.72-12q-4.19-5.76-8.37-11.51-4.35-6-8.7-12a1.26,1.26,0,0,1-.36-.83.55.55,0,0,1,.49-.32c.47-.11.65.27.86.56,5.38,7.44,10.82,14.85,16.2,22.3q5.79,8,11.61,16c4.91,6.74,9.79,13.51,14.71,20.24.19.25.51.5.27.9-.3.09-.34.49-.67.55" transform="translate(-2.55 -5.26)"/><path class="cls-40" d="M211.15,153.47a30,30,0,0,0-2.78-4c-2.7-3.76-5.43-7.5-8.15-11.24l-9.12-12.52c-2.65-3.65-5.29-7.32-7.95-11q-4.62-6.36-9.27-12.72l-5.07-7a1.17,1.17,0,0,1-.09-.32.46.46,0,0,1,.3-.33c.45-.13.6.24.78.5l10.82,14.86q5.74,7.92,11.5,15.84,8.91,12.25,17.8,24.52c.55.75,1.14,1.48,1.62,2.29.19.31.44.65,0,.94l-.35.16" transform="translate(-2.55 -5.26)"/><path class="cls-40" d="M211.5,153.31c.27-.41,0-.69-.22-1l-6.66-9.2-8-11q-4.58-6.32-9.17-12.61l-8.06-11.11q-4.62-6.33-9.24-12.66c-.35-.47-.53-1.09-1.12-1.36l.42-.47a23.59,23.59,0,0,1,2.4,3.15c3.12,4.23,6.2,8.48,9.29,12.73q4,5.49,8,11l9.17,12.61,8,11c2,2.81,4.06,5.64,6.09,8.45a1.2,1.2,0,0,1-.85.48" transform="translate(-2.55 -5.26)"/><path class="cls-41" d="M220.2,147.74l-.37.45c-.32-.05-.45-.32-.61-.54q-9.87-13.56-19.71-27.12-10.63-14.62-21.27-29.26L176.59,89c-.2-.27-.47-.53-.19-.91a.11.11,0,0,1,.12,0c.52-.22.72.18.95.49,1.73,2.29,3.39,4.62,5.08,6.94l10,13.84c4.61,6.32,9.19,12.67,13.8,19q6.26,8.59,12.49,17.21c.5.69,1.24,1.25,1.32,2.2" transform="translate(-2.55 -5.26)"/><path class="cls-39" d="M218.65,149.05a25.2,25.2,0,0,0-2.4-3.47c-2.92-4.06-5.87-8.09-8.82-12.13l-9.87-13.57q-4-5.47-7.94-11l-9.17-12.6c-1.57-2.15-3.13-4.29-4.68-6.44a2.3,2.3,0,0,0-.77-.78.76.76,0,0,1,.51-.34c.38-.1.47.24.62.45q8,11,16,22Q199,120.73,206,130.3l12.8,17.64c.16.22.4.42.34.75l-.51.36" transform="translate(-2.55 -5.26)"/><path class="cls-42" d="M176.4,88.09a1,1,0,0,0,.33.75Q183,97.43,189.22,106c4.19,5.76,8.4,11.49,12.58,17.25,3.19,4.38,6.35,8.79,9.53,13.18l8.5,11.72-.49.39c-1.74-2.27-3.38-4.61-5.07-6.92-2.91-4-5.79-8-8.69-12l-10.14-14q-4.91-6.76-9.84-13.53l-9.88-13.61.68-.5" transform="translate(-2.55 -5.26)"/><path class="cls-38" d="M177.92,87.19a12.49,12.49,0,0,0,1.82,2.73q6.47,9,13,17.89,7,9.61,14,19.24,7.25,10,14.46,20a.53.53,0,0,1-.36.29,10.53,10.53,0,0,1-2.15-2.69Q210.83,133.82,203,123l-19.11-26.3c-1.92-2.64-3.81-5.3-5.74-7.92-.31-.41-.8-.78-.56-1.42.06-.17.21-.15.34-.18" transform="translate(-2.55 -5.26)"/><path class="cls-42" d="M175.72,88.59a6.63,6.63,0,0,1,1.78,2.09c5.47,7.5,10.89,15,16.35,22.55,5.09,7,10.21,14,15.32,21q5,6.81,9.88,13.64a2.87,2.87,0,0,1,.29.7c0,.1-.08.15-.18.11l-6.55-8.95q-4.32-6-8.65-11.92t-8.72-12Q191,110,186.67,104.05L178,92.14c-.83-1.14-1.68-2.27-2.51-3.4l.21-.15" transform="translate(-2.55 -5.26)"/><path class="cls-41" d="M177.58,87.37a11.91,11.91,0,0,0,2.08,3.17c2.9,4.07,5.87,8.09,8.81,12.13l9.87,13.57q4.26,5.85,8.5,11.72t8.67,11.93c1.79,2.46,3.57,5,5.35,7.42l-.31.28a7.72,7.72,0,0,1-1.79-2.23q-5.91-8.18-11.86-16.31c-4.51-6.19-9-12.39-13.5-18.57q-4.11-5.66-8.2-11.32c-2.53-3.5-5-7-7.64-10.47a1.6,1.6,0,0,1-.5-1l.52-.35" transform="translate(-2.55 -5.26)"/><path class="cls-41" d="M177.06,87.73c1.9,2.59,3.81,5.18,5.7,7.78q4.4,6,8.77,12c2.84,3.91,5.66,7.82,8.5,11.72s5.82,8,8.72,12l8.69,12c1.05,1.44,2.07,2.89,3.11,4.34-.07.16-.22.13-.35.15-2.75-3.8-5.48-7.61-8.23-11.4l-8.73-12-8.57-11.78L186.26,101q-4.53-6.24-9-12.49a.89.89,0,0,0-.69-.44.86.86,0,0,1,.54-.33" transform="translate(-2.55 -5.26)"/><path class="cls-43" d="M132,158.63V12a6.74,6.74,0,1,0-13.47,0V158.63a6.74,6.74,0,1,0,13.47,0" transform="translate(-2.55 -5.26)"/><path class="cls-43" d="M51.24,156a36.19,36.19,0,1,1,36.19-36.18A36.22,36.22,0,0,1,51.24,156m48.69-36.19a48.88,48.88,0,1,0-12.51,32.47v6.55A36.23,36.23,0,0,1,51.23,195a6.26,6.26,0,0,0,0,12.51,48.75,48.75,0,0,0,48.7-48.7Z" transform="translate(-2.55 -5.26)"/><path class="cls-3" d="M159.19,122v-.51a18.64,18.64,0,0,0,0-4.09v-.51a39.14,39.14,0,0,1,.62-5.29,8.26,8.26,0,0,1,.58-2c.61-.47.88.09,1.14.44,1.13,1.49,2.22,3,3.32,4.53q5.7,7.83,11.39,15.69,9.16,12.57,18.29,25.18c.2.27.47.53.32.92-.15.16-.41,0-.56.17H193.1a41.33,41.33,0,0,1-5.19-.75,37.55,37.55,0,0,1-25.08-20,35.76,35.76,0,0,1-3.41-11.1c-.12-.92-.06-1.86-.23-2.77" transform="translate(-2.55 -5.26)"/><path class="cls-4" d="M160.6,109.54a13.53,13.53,0,0,1,.82-2.55c.55-.25.69.27.9.54,1.93,2.6,3.81,5.22,5.72,7.84q9.28,12.76,18.56,25.54c3.46,4.75,6.89,9.51,10.35,14.26a1.67,1.67,0,0,1,.5,1.14c0,.13-.17.17-.27.25h-1.53c-.25-.22-.61.05-.85-.18a32.77,32.77,0,0,0-2.78-4c-2.88-4-5.81-8-8.71-12s-6-8.27-9-12.4q-4-5.52-8-11c-1.66-2.28-3.31-4.57-5-6.85a1,1,0,0,0-.72-.55" transform="translate(-2.55 -5.26)"/><path class="cls-5" d="M201.44,156.18c-.66.21-1.4,0-2,.38h-.17c-3.5-5.06-7.21-10-10.82-15q-8.28-11.45-16.61-22.87c-3.2-4.38-6.3-8.82-9.6-13.13a.87.87,0,0,1-.14-.31,10.9,10.9,0,0,1,.92-2c.58-.19.72.33.94.63l5.15,7.09c3.46,4.78,6.94,9.53,10.4,14.31,6.28,8.69,12.61,17.33,18.88,26,1,1.33,2,2.65,2.9,4,.18.26.49.52.19.89" transform="translate(-2.55 -5.26)"/><path class="cls-6" d="M162.06,105.27a10.83,10.83,0,0,1,2.27,2.82q5.11,7,10.17,14,4.35,6,8.66,11.92l8.52,11.72L199,155.76a1.2,1.2,0,0,1,.24.8h-.85c-.31-.23-.72.06-1-.18a12.61,12.61,0,0,0-2-3.1c-3.21-4.48-6.46-8.92-9.7-13.38l-8.93-12.26-8.06-11.11-6.73-9.24a.56.56,0,0,0-.48-.3,6.6,6.6,0,0,1,.64-1.72" transform="translate(-2.55 -5.26)"/><path class="cls-7" d="M159.19,117.38c.4,1,.09,2.05.16,3.07,0,.33.2.73-.16,1Z" transform="translate(-2.55 -5.26)"/><path class="cls-8" d="M233.64,117.89v2.9l-.13,0a.39.39,0,0,1-.18-.2,3.79,3.79,0,0,1-.09-1.11,3.62,3.62,0,0,1,.15-1.57.17.17,0,0,1,.25-.06" transform="translate(-2.55 -5.26)"/><path class="cls-9" d="M195.13,82.26a.76.76,0,0,0,0-.15h2.56a.38.38,0,0,0,0,.15c-.19.25-.46.23-.73.27-.62,0-1.28.19-1.84-.27" transform="translate(-2.55 -5.26)"/><path class="cls-10" d="M194.8,156.38c.28.07.62-.12.85.18h-1.36c.11-.21.33-.15.51-.18" transform="translate(-2.55 -5.26)"/><path class="cls-10" d="M197.35,156.38c.34.08.73-.14,1,.18h-1.2l.17-.18" transform="translate(-2.55 -5.26)"/><path class="cls-11" d="M233.51,120.78a.28.28,0,0,0,.13,0v.86h-.14a.55.55,0,0,1,0-.87" transform="translate(-2.55 -5.26)"/><path class="cls-12" d="M233.64,117.89h-.15a.55.55,0,0,1,0-.85h.14Z" transform="translate(-2.55 -5.26)"/><path class="cls-13" d="M210.31,85a32.31,32.31,0,0,1,8.76,5,36.8,36.8,0,0,1,14,23.37,18.36,18.36,0,0,1,.37,3.55c-.57.21-.73-.29-1-.6q-2.94-4-5.87-8c-3.8-5.22-7.59-10.47-11.39-15.7-1.56-2.13-3.12-4.25-4.65-6.41-.22-.32-.62-.65-.26-1.13" transform="translate(-2.55 -5.26)"/><path class="cls-14" d="M197,82.31l.68,0,.85.06c.39.15.49.55.69.84,3.82,5.33,7.71,10.61,11.56,15.91q8.23,11.37,16.51,22.73c1.6,2.2,3.13,4.45,4.83,6.59.1.12.25.24.16.44-.12.44-.25.88-.37,1.33-.58.22-.73-.31-.94-.61q-2.87-3.92-5.72-7.84-5.57-7.72-11.19-15.42c-5.46-7.49-10.88-15-16.35-22.5-.32-.44-.8-.83-.71-1.48" transform="translate(-2.55 -5.26)"/><path class="cls-15" d="M210.31,85c.09,1,.84,1.58,1.35,2.3,3.21,4.46,6.46,8.91,9.69,13.35q4.52,6.2,9,12.38c.82,1.12,1.62,2.24,2.43,3.36.17.24.32.47.64.5l.06.16c0,.28,0,.57,0,.85,0,.57,0,1.14,0,1.71-.58.22-.74-.28-1-.59-1.79-2.42-3.54-4.86-5.3-7.3L216.62,97.18q-4.41-6.06-8.79-12.13c-.22-.3-.58-.61-.26-1.06a12,12,0,0,1,2.74,1" transform="translate(-2.55 -5.26)"/><path class="cls-16" d="M232.3,128.83a33.73,33.73,0,0,1-3.21-4.24q-8.19-11.18-16.31-22.38-6.93-9.55-13.85-19.13a4.35,4.35,0,0,1-.37-.75,4.88,4.88,0,0,1,1.52.14c1.36,1.74,2.63,3.56,3.93,5.35q5.7,7.84,11.41,15.7c5.46,7.54,11,15,16.4,22.61.29.42.86.69.81,1.32a3.45,3.45,0,0,1-.33,1.38" transform="translate(-2.55 -5.26)"/><path class="cls-17" d="M233.44,122a7.85,7.85,0,0,1-.17,1.87c-.57.21-.73-.28-1-.59-2-2.77-4-5.56-6.05-8.33q-9.09-12.5-18.15-25c-1.44-2-2.89-3.93-4.3-5.92-.22-.3-.59-.58-.32-1.05.66-.06,1.22.41,1.87.39,2.26,3.16,4.57,6.29,6.85,9.44l11.21,15.43c3.33,4.59,6.65,9.2,10,13.76" transform="translate(-2.55 -5.26)"/><path class="cls-18" d="M203.49,83c.09.7.63,1.13,1,1.64,3.73,5.17,7.5,10.32,11.25,15.47q4.35,6,8.68,12l8.25,11.37a.78.78,0,0,0,.6.42,6.39,6.39,0,0,1-.31,1.89A33.89,33.89,0,0,1,230.1,122l-10.5-14.44L202.51,84a3.05,3.05,0,0,1-.72-1.32,5.79,5.79,0,0,1,1.7.3" transform="translate(-2.55 -5.26)"/><path class="cls-19" d="M232.63,127.45c-4-5.21-7.73-10.57-11.59-15.86L208.42,94.28l-7.85-10.84a2,2,0,0,1-.49-1l1.2.16c1.18,1.37,2.18,2.89,3.24,4.35q6.27,8.65,12.56,17.28,7.88,10.83,15.75,21.68l.1.13c-.22.43,0,1-.3,1.38" transform="translate(-2.55 -5.26)"/><path class="cls-20" d="M233.44,122c-.32,0-.48-.26-.64-.49q-7-9.69-14-19.35c-4.18-5.76-8.39-11.5-12.57-17.26a2.93,2.93,0,0,1-.84-1.53,2.8,2.8,0,0,1,1,.3c1.53,2,3,4,4.43,6,3.8,5.24,7.62,10.47,11.4,15.71,2.38,3.28,4.78,6.55,7.14,9.86q2,2.81,4.09,5.55l.07,0c0,.29,0,.58,0,.87l-.06.33" transform="translate(-2.55 -5.26)"/><path class="cls-20" d="M233.44,120.8c-.86-.4-1.18-1.26-1.69-2q-5.81-7.92-11.56-15.87c-2.9-4-5.79-8-8.69-12-1.49-2.06-3-4.1-4.49-6.15a2.46,2.46,0,0,1-.63-1.19,2.82,2.82,0,0,1,1.2.35A5.41,5.41,0,0,0,209,86.28c2.91,4.06,5.87,8.09,8.81,12.13l9,12.38q3,4.11,6,8.24c.18.26.33.53.69.56,0,.4,0,.81,0,1.21" transform="translate(-2.55 -5.26)"/><path class="cls-21" d="M232.94,126.07c-.33,0-.48-.26-.65-.49q-7.2-9.9-14.39-19.79Q211.09,96.4,204.3,87c-.94-1.3-1.89-2.6-2.83-3.91a3.07,3.07,0,0,1-.2-.45l.52,0,2.78,3.82,9.17,12.61,8.06,11.11c2.91,4,5.84,8,8.72,12a26.81,26.81,0,0,1,2.44,3.54l0,.33" transform="translate(-2.55 -5.26)"/><path class="cls-22" d="M207.77,154.74a18.53,18.53,0,0,1-3.43.94c-2.81-3.82-5.58-7.66-8.37-11.49q-5.72-7.84-11.41-15.7l-17.85-24.58c-.78-1.08-1.56-2.17-2.37-3.23a17.68,17.68,0,0,1,1.88-2.89c.55-.23.68.29.88.56,2.1,2.83,4.16,5.68,6.23,8.53,3.76,5.16,7.49,10.33,11.25,15.49q8.35,11.49,16.7,23l6.11,8.4c.21.28.54.53.38,1" transform="translate(-2.55 -5.26)"/><path class="cls-23" d="M225.12,142.88a10.2,10.2,0,0,1-1.86,2.13c-3.45-4.68-6.84-9.41-10.26-14.11s-6.92-9.49-10.36-14.25c-5.83-8.07-11.73-16.1-17.55-24.18-1.39-1.93-2.81-3.85-4.19-5.78-.18-.25-.43-.47-.4-.83a9.76,9.76,0,0,1,2.37-1c.38-.21.5.12.66.33l7.91,10.88c3.79,5.2,7.57,10.43,11.36,15.63q8.26,11.37,16.5,22.74c1.85,2.55,3.73,5.08,5.55,7.65.17.23.48.44.27.81" transform="translate(-2.55 -5.26)"/><path class="cls-24" d="M216.08,150.89a8.46,8.46,0,0,1-2.2,1.22c-.38-.09-.54-.41-.74-.68-4.24-5.8-8.44-11.62-12.67-17.42l-9.8-13.51q-9-12.4-18-24.81a18.1,18.1,0,0,1-2-3,13.48,13.48,0,0,1,2-1.77,9.26,9.26,0,0,1,1.91,2.36q6.39,8.76,12.75,17.54,9,12.31,17.9,24.65,5.28,7.24,10.54,14.53c.19.26.47.5.36.9" transform="translate(-2.55 -5.26)"/><path class="cls-25" d="M164.34,100.68c.32,0,.47.27.64.5q7,9.67,14,19.35,6.54,9,13.09,17.92c3.19,4.39,6.35,8.79,9.53,13.19.71,1,1.45,1.94,2.17,2.93.23.33.58.63.55,1.11a18.93,18.93,0,0,1-2.9.51,7.53,7.53,0,0,0-1.52-2.4q-4.84-6.73-9.74-13.44-5.62-7.74-11.28-15.46c-3.06-4.2-6.09-8.42-9.15-12.62l-6.26-8.64c-.14-.19-.25-.38-.51-.39a14,14,0,0,1,1.36-2.56" transform="translate(-2.55 -5.26)"/><path class="cls-26" d="M216.08,150.89c-1.78-2.48-3.54-5-5.33-7.42q-4.25-5.86-8.51-11.71l-8.77-12L185,108c-2.9-4-5.82-8-8.72-12-1.22-1.69-2.42-3.4-3.63-5.1a11,11,0,0,1,1.89-1.51c3.45,4.69,6.84,9.41,10.26,14.12q5.67,7.77,11.31,15.56c6,8.25,12,16.48,18,24.73,1.16,1.62,2.33,3.22,3.51,4.82.2.29.53.53.42,1a9.79,9.79,0,0,1-1.9,1.29" transform="translate(-2.55 -5.26)"/><path class="cls-27" d="M225.12,142.88c-1.32-2.1-2.87-4-4.32-6q-4-5.54-8-11-4.62-6.36-9.27-12.73l-7.94-11c-3.09-4.25-6.19-8.48-9.28-12.73-1-1.41-2-2.84-3-4.27a.51.51,0,0,0-.4-.27,10,10,0,0,1,2.55-.89,16.42,16.42,0,0,1,2,2.62c4.39,6,8.79,12,13.16,18.09,5.38,7.45,10.81,14.86,16.19,22.3q4.44,6.14,8.91,12.25a3.62,3.62,0,0,1,1,1.65,7.54,7.54,0,0,1-1.53,2" transform="translate(-2.55 -5.26)"/><path class="cls-28" d="M207.77,154.74c-1.21-1.7-2.41-3.42-3.64-5.11q-4.35-6-8.72-12l-8.56-11.79c-2.84-3.9-5.67-7.82-8.51-11.72l-8.73-12-2.89-4c-.13-.19-.24-.38-.5-.39a10.26,10.26,0,0,1,1.46-1.89c.53-.1.66.36.88.65,2.41,3.22,4.74,6.51,7.11,9.77q5.24,7.19,10.46,14.38c6.28,8.68,12.62,17.33,18.89,26,1.46,2,2.95,4,4.4,6.06.26.35.64.67.54,1.19a10.18,10.18,0,0,1-2.19.77" transform="translate(-2.55 -5.26)"/><path class="cls-29" d="M180.5,85.86l7.83,10.75q7.44,10.2,14.87,20.41,6,8.19,11.88,16.4c2.63,3.61,5.24,7.22,7.88,10.82a1.16,1.16,0,0,1,.3.76,4.43,4.43,0,0,1-1.37,1.32,20.18,20.18,0,0,1-2.55-3.28c-3.84-5.24-7.63-10.52-11.45-15.77q-8.23-11.31-16.46-22.64C187.19,98.8,183,93,178.71,87.16a.71.71,0,0,1-.15-.3,7.44,7.44,0,0,1,1.94-1" transform="translate(-2.55 -5.26)"/><path class="cls-30" d="M226.65,140.86l-6-8.28L212,120.65q-4.27-5.9-8.56-11.78l-8.73-12-9.15-12.61a1,1,0,0,1-.09-.32,5,5,0,0,1,1.69-.48c.37-.19.5.1.67.32l13,17.85c3.4,4.68,6.82,9.36,10.21,14q7.92,10.94,15.87,21.84a10.94,10.94,0,0,1,1.09,1.51,7.14,7.14,0,0,1-1.26,1.82" transform="translate(-2.55 -5.26)"/><path class="cls-31" d="M170.61,92.68c1.33,1.53,2.43,3.24,3.63,4.88,2.94,4,5.86,8,8.78,12s5.77,8,8.66,11.93l8.51,11.71q4.25,5.83,8.46,11.66l5.23,7.2a6.12,6.12,0,0,1-1.53.72,8.5,8.5,0,0,1-1.85-2.28q-7.11-9.74-14.17-19.49l-17.87-24.6q-4.23-5.82-8.46-11.64a2.38,2.38,0,0,1-.56-.94l1.17-1.2" transform="translate(-2.55 -5.26)"/><path class="cls-32" d="M229.55,136.1a5.58,5.58,0,0,1-.84,1.58c-.45-.14-.62-.56-.87-.9q-5.81-7.92-11.57-15.89L205,105.32,189.46,84c-.2-.28-.53-.55-.28-1a2.65,2.65,0,0,1,1.18-.2c.64-.26,1,.11,1.34.57l7.2,9.91c3.81,5.23,7.59,10.47,11.4,15.7q8.94,12.27,17.85,24.58l1.21,1.64c.2.28.43.55.19.91" transform="translate(-2.55 -5.26)"/><path class="cls-33" d="M231.31,132a9.13,9.13,0,0,1-.89,2.22c-.49-.13-.71-.54-1-.91-4.08-5.58-8.13-11.2-12.2-16.79q-5.24-7.19-10.46-14.38-6.71-9.27-13.45-18.52c-.25-.34-.66-.67-.4-1.2a6.08,6.08,0,0,1,2-.15,12.15,12.15,0,0,1,2,2.6q5.73,7.89,11.46,15.76,8.22,11.34,16.46,22.66c2.12,2.91,4.18,5.87,6.39,8.71" transform="translate(-2.55 -5.26)"/><path class="cls-34" d="M189.18,83a4.52,4.52,0,0,0,1.1,1.78q7.64,10.53,15.31,21c4.1,5.64,8.17,11.31,12.26,17q5.42,7.47,10.86,14.93a4.78,4.78,0,0,1-.8,1.36,5.31,5.31,0,0,1-1.59-1.84c-3.37-4.6-6.7-9.23-10-13.85l-9.88-13.55c-2.89-4-5.76-8-8.65-11.93-3.27-4.51-6.53-9-9.82-13.49-.23-.32-.28-.85-.81-.91a7.34,7.34,0,0,1,2.07-.48" transform="translate(-2.55 -5.26)"/><path class="cls-35" d="M192.93,82.46A11.89,11.89,0,0,0,195,85.62c3,4.27,6.17,8.5,9.26,12.75,2.85,3.9,5.68,7.81,8.53,11.72l8.41,11.58,8.6,11.88c.18.25.4.48.59.71a6.19,6.19,0,0,1-.86,1.84.93.93,0,0,0-.26-.68q-6-8.3-12-16.59-6.57-9-13.15-18c-3.33-4.57-6.63-9.15-9.94-13.72-.92-1.26-1.85-2.51-2.73-3.78a1.07,1.07,0,0,0-1.06-.54,14.69,14.69,0,0,1,2.57-.33" transform="translate(-2.55 -5.26)"/><path class="cls-36" d="M231.31,132c-.86-.29-1.13-1.13-1.59-1.77q-5.82-7.92-11.58-15.88c-3.19-4.39-6.35-8.79-9.54-13.18s-6.6-9-9.87-13.57c-1.26-1.76-2.64-3.45-3.76-5.33l.16,0,1.89,0c1.31,2.12,2.87,4.06,4.32,6.08,2.65,3.69,5.33,7.36,8,11L218.51,112l8,11c1.63,2.24,3.27,4.48,4.89,6.72.14.19.26.36.52.37a9,9,0,0,1-.62,1.88" transform="translate(-2.55 -5.26)"/><path class="cls-37" d="M210,154c-1.48-2.31-3.18-4.46-4.78-6.69-2.65-3.69-5.34-7.36-8-11l-8.82-12.13-8.66-11.94-8.52-11.72c-1-1.34-2-2.69-2.94-4a1.29,1.29,0,0,0-.54-.52,3.31,3.31,0,0,1,1-1.22,16,16,0,0,1,2,2.62c4.38,6,8.79,12,13.16,18.09,5.83,8.07,11.71,16.1,17.54,24.17q4.47,6.16,9,12.32c.34.47.92.86.75,1.59L210,154" transform="translate(-2.55 -5.26)"/><path class="cls-38" d="M178.56,86.86a14.28,14.28,0,0,1,2.57,3.23c3.92,5.32,7.79,10.67,11.67,16,3.63,5,7.24,10,10.87,15s7.49,10.26,11.23,15.4l6.93,9.53a.84.84,0,0,1,.06.24c-.33.14-.33.59-.69.7-.51-.17-.7-.65-1-1q-6.43-8.9-12.91-17.76c-6.83-9.45-13.71-18.86-20.55-28.3-2.81-3.88-5.64-7.75-8.45-11.64-.23-.32-.64-.61-.4-1.11a1,1,0,0,1,.64-.33" transform="translate(-2.55 -5.26)"/><path class="cls-39" d="M218,149.6l-8.75-12.08q-4.28-5.9-8.57-11.78t-8.72-12q-4.19-5.76-8.37-11.51-4.35-6-8.7-12a1.26,1.26,0,0,1-.36-.83.55.55,0,0,1,.49-.32c.47-.11.65.27.86.56,5.38,7.44,10.82,14.85,16.2,22.3q5.79,8,11.61,16c4.91,6.74,9.79,13.51,14.71,20.24.19.25.51.5.27.9-.3.09-.34.49-.67.55" transform="translate(-2.55 -5.26)"/><path class="cls-40" d="M211.15,153.47a30,30,0,0,0-2.78-4c-2.7-3.76-5.43-7.5-8.15-11.24l-9.12-12.52c-2.65-3.65-5.29-7.32-7.95-11q-4.62-6.36-9.27-12.72l-5.07-7a1.17,1.17,0,0,1-.09-.32.46.46,0,0,1,.3-.33c.45-.13.6.24.78.5l10.82,14.86q5.74,7.92,11.5,15.84,8.91,12.25,17.8,24.52c.55.75,1.14,1.48,1.62,2.29.19.31.44.65,0,.94l-.35.16" transform="translate(-2.55 -5.26)"/><path class="cls-40" d="M211.5,153.31c.27-.41,0-.69-.22-1l-6.66-9.2-8-11q-4.58-6.32-9.17-12.61l-8.06-11.11q-4.62-6.33-9.24-12.66c-.35-.47-.53-1.09-1.12-1.36l.42-.47a23.59,23.59,0,0,1,2.4,3.15c3.12,4.23,6.2,8.48,9.29,12.73q4,5.49,8,11l9.17,12.61,8,11c2,2.81,4.06,5.64,6.09,8.45a1.2,1.2,0,0,1-.85.48" transform="translate(-2.55 -5.26)"/><path class="cls-41" d="M220.2,147.74l-.37.45c-.32-.05-.45-.32-.61-.54q-9.87-13.56-19.71-27.12-10.63-14.62-21.27-29.26L176.59,89c-.2-.27-.47-.53-.19-.91a.11.11,0,0,1,.12,0c.52-.22.72.18.95.49,1.73,2.29,3.39,4.62,5.08,6.94l10,13.84c4.61,6.32,9.19,12.67,13.8,19q6.26,8.59,12.49,17.21c.5.69,1.24,1.25,1.32,2.2" transform="translate(-2.55 -5.26)"/><path class="cls-39" d="M218.65,149.05a25.2,25.2,0,0,0-2.4-3.47c-2.92-4.06-5.87-8.09-8.82-12.13l-9.87-13.57q-4-5.47-7.94-11l-9.17-12.6c-1.57-2.15-3.13-4.29-4.68-6.44a2.3,2.3,0,0,0-.77-.78.76.76,0,0,1,.51-.34c.38-.1.47.24.62.45q8,11,16,22Q199,120.73,206,130.3l12.8,17.64c.16.22.4.42.34.75l-.51.36" transform="translate(-2.55 -5.26)"/><path class="cls-42" d="M176.4,88.09a1,1,0,0,0,.33.75Q183,97.43,189.22,106c4.19,5.76,8.4,11.49,12.58,17.25,3.19,4.38,6.35,8.79,9.53,13.18l8.5,11.72-.49.39c-1.74-2.27-3.38-4.61-5.07-6.92-2.91-4-5.79-8-8.69-12l-10.14-14q-4.91-6.76-9.84-13.53l-9.88-13.61.68-.5" transform="translate(-2.55 -5.26)"/><path class="cls-38" d="M177.92,87.19a12.49,12.49,0,0,0,1.82,2.73q6.47,9,13,17.89,7,9.61,14,19.24,7.25,10,14.46,20a.53.53,0,0,1-.36.29,10.53,10.53,0,0,1-2.15-2.69Q210.83,133.82,203,123l-19.11-26.3c-1.92-2.64-3.81-5.3-5.74-7.92-.31-.41-.8-.78-.56-1.42.06-.17.21-.15.34-.18" transform="translate(-2.55 -5.26)"/><path class="cls-42" d="M175.72,88.59a6.63,6.63,0,0,1,1.78,2.09c5.47,7.5,10.89,15,16.35,22.55,5.09,7,10.21,14,15.32,21q5,6.81,9.88,13.64a2.87,2.87,0,0,1,.29.7c0,.1-.08.15-.18.11l-6.55-8.95q-4.32-6-8.65-11.92t-8.72-12Q191,110,186.67,104.05L178,92.14c-.83-1.14-1.68-2.27-2.51-3.4l.21-.15" transform="translate(-2.55 -5.26)"/><path class="cls-41" d="M177.58,87.37a11.91,11.91,0,0,0,2.08,3.17c2.9,4.07,5.87,8.09,8.81,12.13l9.87,13.57q4.26,5.85,8.5,11.72t8.67,11.93c1.79,2.46,3.57,5,5.35,7.42l-.31.28a7.72,7.72,0,0,1-1.79-2.23q-5.91-8.18-11.86-16.31c-4.51-6.19-9-12.39-13.5-18.57q-4.11-5.66-8.2-11.32c-2.53-3.5-5-7-7.64-10.47a1.6,1.6,0,0,1-.5-1l.52-.35" transform="translate(-2.55 -5.26)"/><path class="cls-41" d="M177.06,87.73c1.9,2.59,3.81,5.18,5.7,7.78q4.4,6,8.77,12c2.84,3.91,5.66,7.82,8.5,11.72s5.82,8,8.72,12l8.69,12c1.05,1.44,2.07,2.89,3.11,4.34-.07.16-.22.13-.35.15-2.75-3.8-5.48-7.61-8.23-11.4l-8.73-12-8.57-11.78L186.26,101q-4.53-6.24-9-12.49a.89.89,0,0,0-.69-.44.86.86,0,0,1,.54-.33" transform="translate(-2.55 -5.26)"/><path class="cls-44" d="M132,158.63V12a6.74,6.74,0,1,0-13.47,0V158.63a6.74,6.74,0,1,0,13.47,0" transform="translate(-2.55 -5.26)"/><path class="cls-44" d="M51.24,156a36.19,36.19,0,1,1,36.19-36.18A36.22,36.22,0,0,1,51.24,156m48.69-36.19a48.88,48.88,0,1,0-12.51,32.47v6.55A36.23,36.23,0,0,1,51.23,195a6.26,6.26,0,0,0,0,12.51,48.75,48.75,0,0,0,48.7-48.7Z" transform="translate(-2.55 -5.26)"/><path class="cls-44" d="M196.42,155.94a36.19,36.19,0,1,1,36.18-36.18,36.23,36.23,0,0,1-36.18,36.18m0-84.88a48.69,48.69,0,1,0,48.69,48.7,48.74,48.74,0,0,0-48.69-48.7" transform="translate(-2.55 -5.26)"/></g></svg>